<?xml version="1.0" encoding="utf-8"?>
<!-- Generator: Adobe Adobe Illustrator 24.2.0, SVG Export Plug-In . SVG Version: 6.00 Build 0)  -->
<svg version="1.1" xmlns="http://www.w3.org/2000/svg" xmlns:xlink="http://www.w3.org/1999/xlink" x="0px" y="0px" width="16px"
	 height="16px" viewBox="0 0 16 16" style="enable-background:new 0 0 16 16;" xml:space="preserve">
<style type="text/css">
	.st0{display:none;}
	.st1{fill:#3C91E6;stroke:#3C91E6;stroke-miterlimit:10;}
	.st2{fill:none;stroke:#3C91E6;stroke-linejoin:round;stroke-miterlimit:10;}
	.st3{fill:none;stroke:#3C91E6;stroke-miterlimit:10;}
	.st4{fill:none;stroke:#FA842C;stroke-miterlimit:10;}
	.st5{fill:#FA842C;stroke:#FA842C;stroke-miterlimit:10;}
	.st6{fill:none;stroke:#FA842C;stroke-linejoin:round;stroke-miterlimit:10;}
	.st7{fill:#3B402B;stroke:#3B402B;stroke-miterlimit:10;}
	.st8{fill:none;stroke:#3B402B;stroke-miterlimit:10;}
	.st9{fill:none;stroke:#3B402B;stroke-linejoin:round;stroke-miterlimit:10;}
	.st10{stroke:#000000;stroke-miterlimit:10;}
	.st11{fill:none;stroke:#000000;stroke-linejoin:round;stroke-miterlimit:10;}
	.st12{fill:none;stroke:#000000;stroke-miterlimit:10;}
</style>
<g id="Layer_1">
</g>
<g id="Layer_2" class="st0">
</g>
<g id="Ocean">
	<path class="st1" d="M3.72,15.09c0,0,0.92-3.12,1.41-4.09c0.3-0.59,1.49-2.2,1.49-2.2S5.56,7.24,5.18,6.75
		c-0.6-0.77-2.17-2.07-2.57-2.97C2.53,3.6,2.54,3.16,2.67,3.02C2.85,2.81,4.4,2.52,4.64,2.39c0.24-0.13,1.04-1.13,1.49-1.3
		c0.42-0.16,1.83,0.3,2.1,0.24c0.32-0.07,1.86-0.57,2.33-0.15c0.56,0.49-0.04,2.78-0.04,2.78s2.86-0.95,3.49-0.4
		c0.72,0.63-0.19,2.19-0.09,2.4c0.04,0.09,0.52,1.43,0.43,1.95c-0.07,0.42-0.93,1.07-0.98,1.26c-0.04,0.14,0.26,1.58-0.04,1.98
		c-0.15,0.2-0.75,0.22-0.96,0.18c-1.11-0.2-2.3-0.82-3.26-1.34C8.73,9.77,7.2,9.13,7.2,9.13S6,10.78,5.7,11.39
		c-0.43,0.88-1.28,3.69-1.28,3.69L3.72,15.09z"/>
</g>
<g id="Coral">
</g>
<g id="Charcoal">
</g>
<g id="Black">
	<g id="Layer_4_copy">
	</g>
</g>
</svg>
