<?xml version="1.0" encoding="utf-8"?>
<!-- Generator: Adobe Adobe Illustrator 24.2.0, SVG Export Plug-In . SVG Version: 6.00 Build 0)  -->
<svg version="1.1" xmlns="http://www.w3.org/2000/svg" xmlns:xlink="http://www.w3.org/1999/xlink" x="0px" y="0px" width="16px"
	 height="16px" viewBox="0 0 16 16" style="enable-background:new 0 0 16 16;" xml:space="preserve">
<style type="text/css">
	.st0{display:none;}
	.st1{fill:#3C91E6;stroke:#3C91E6;stroke-miterlimit:10;}
	.st2{fill:none;stroke:#3C91E6;stroke-linejoin:round;stroke-miterlimit:10;}
	.st3{fill:none;stroke:#3C91E6;stroke-miterlimit:10;}
	.st4{fill:none;stroke:#FA842C;stroke-miterlimit:10;}
	.st5{fill:#FA842C;stroke:#FA842C;stroke-miterlimit:10;}
	.st6{fill:none;stroke:#FA842C;stroke-linejoin:round;stroke-miterlimit:10;}
	.st7{fill:#3B402B;stroke:#3B402B;stroke-miterlimit:10;}
	.st8{fill:none;stroke:#3B402B;stroke-miterlimit:10;}
	.st9{fill:none;stroke:#3B402B;stroke-linejoin:round;stroke-miterlimit:10;}
	.st10{stroke:#000000;stroke-miterlimit:10;}
	.st11{fill:none;stroke:#000000;stroke-linejoin:round;stroke-miterlimit:10;}
	.st12{fill:none;stroke:#000000;stroke-miterlimit:10;}
</style>
<g id="Layer_1">
</g>
<g id="Layer_2" class="st0">
</g>
<g id="Ocean">
</g>
<g id="Coral">
</g>
<g id="Charcoal">
</g>
<g id="Black">
	<g id="Layer_4_copy">
	</g>
	<path class="st10" d="M4.64,13.1c0,0,0.63-2.15,0.95-2.82C5.79,9.87,6.6,8.77,6.6,8.77S5.88,7.69,5.62,7.35
		C5.21,6.82,4.15,5.92,3.88,5.3C3.83,5.18,3.84,4.88,3.92,4.78c0.12-0.14,1.17-0.34,1.33-0.43c0.16-0.09,0.71-0.78,1.01-0.9
		c0.29-0.11,1.24,0.21,1.42,0.17c0.22-0.05,1.26-0.39,1.58-0.1c0.38,0.34-0.02,1.92-0.02,1.92s1.94-0.66,2.37-0.28
		c0.48,0.43-0.13,1.51-0.06,1.66c0.03,0.06,0.35,0.98,0.29,1.34c-0.05,0.29-0.63,0.74-0.66,0.87c-0.03,0.1,0.17,1.09-0.03,1.36
		c-0.1,0.13-0.51,0.15-0.65,0.13C9.75,10.37,8.94,9.94,8.3,9.58C8.03,9.44,6.99,8.99,6.99,8.99s-0.81,1.14-1.01,1.56
		c-0.29,0.6-0.87,2.55-0.87,2.55L4.64,13.1z"/>
	<rect x="0.85" y="1.4" class="st11" width="14" height="14"/>
	<line class="st12" x1="10.87" y1="0.4" x2="10.86" y2="2.4"/>
	<line class="st12" x1="4.86" y1="0.4" x2="4.85" y2="2.4"/>
</g>
</svg>
